# xmcd CD database file
#
# Track frame offsets:
#	150
#	15113
#	33146
#	48228
#	71308
#
# Disc length: 1251 seconds
#
# Revision: 5
# Processed by: cddbd v1.5PL3 Copyright (c) Steve Scherf et al.
# Submitted via: CDex 1.51
#
DISCID=2904e105
DTITLE=Simply Red - Home
DYEAR=2000
DGENRE=Blues
TTITLE0=Home
TTITLE1=Fake
TTITLE2=Sunrise
TTITLE3=You Make Me Feel Brand New
TTITLE4=Home Loan Blues
EXTD=YEAR: 2000
EXTT0=
EXTT1=
EXTT2=
EXTT3=
EXTT4=
PLAYORDER=
